<mxfile host="app.diagrams.net" agent="Mozilla/5.0 (X11; Ubuntu; Linux x86_64; rv:138.0) Gecko/20100101 Firefox/138.0" version="27.0.8">
  <diagram name="Page-1" id="rtHeGhFDsM3PxnF-h1l5">
    <mxGraphModel dx="1219" dy="798" grid="1" gridSize="10" guides="1" tooltips="1" connect="1" arrows="1" fold="1" page="1" pageScale="1" pageWidth="850" pageHeight="1100" math="0" shadow="0">
      <root>
        <mxCell id="0" />
        <mxCell id="1" parent="0" />
        <mxCell id="TmPYNQ2tfaqNUfT9FM-9-1" value="" style="rounded=0;whiteSpace=wrap;html=1;fillColor=#b0e3e6;strokeColor=#0e8088;" vertex="1" parent="1">
          <mxGeometry x="765" y="160" width="510" height="230" as="geometry" />
        </mxCell>
        <mxCell id="TmPYNQ2tfaqNUfT9FM-9-2" value="" style="rounded=0;whiteSpace=wrap;html=1;fillColor=#d5e8d4;strokeColor=#82b366;labelBackgroundColor=none;" vertex="1" parent="1">
          <mxGeometry x="230" y="160" width="525" height="590" as="geometry" />
        </mxCell>
        <mxCell id="TmPYNQ2tfaqNUfT9FM-9-3" value="" style="rounded=0;whiteSpace=wrap;html=1;fillColor=#ffcccc;strokeColor=#36393d;" vertex="1" parent="1">
          <mxGeometry x="765" y="400" width="510" height="350" as="geometry" />
        </mxCell>
        <mxCell id="TmPYNQ2tfaqNUfT9FM-9-4" value="Backend Server" style="text;html=1;align=center;verticalAlign=middle;whiteSpace=wrap;rounded=0;" vertex="1" parent="1">
          <mxGeometry x="230" y="160" width="80" height="50" as="geometry" />
        </mxCell>
        <mxCell id="TmPYNQ2tfaqNUfT9FM-9-5" value="Frontend Interface" style="text;html=1;align=center;verticalAlign=middle;whiteSpace=wrap;rounded=0;" vertex="1" parent="1">
          <mxGeometry x="765" y="160" width="80" height="50" as="geometry" />
        </mxCell>
        <mxCell id="TmPYNQ2tfaqNUfT9FM-9-6" value="Drone Module" style="text;html=1;align=center;verticalAlign=middle;whiteSpace=wrap;rounded=0;" vertex="1" parent="1">
          <mxGeometry x="775" y="400" width="80" height="50" as="geometry" />
        </mxCell>
        <mxCell id="TmPYNQ2tfaqNUfT9FM-9-7" value="Socket.IO Client" style="rounded=1;whiteSpace=wrap;html=1;" vertex="1" parent="1">
          <mxGeometry x="920" y="180" width="120" height="30" as="geometry" />
        </mxCell>
        <mxCell id="TmPYNQ2tfaqNUfT9FM-9-8" value="" style="endArrow=classic;startArrow=classic;html=1;rounded=0;exitX=0.5;exitY=0;exitDx=0;exitDy=0;entryX=0;entryY=0.25;entryDx=0;entryDy=0;" edge="1" parent="1" source="TmPYNQ2tfaqNUfT9FM-9-16" target="TmPYNQ2tfaqNUfT9FM-9-7">
          <mxGeometry width="50" height="50" relative="1" as="geometry">
            <mxPoint x="580" y="195" as="sourcePoint" />
            <mxPoint x="685" y="280" as="targetPoint" />
            <Array as="points">
              <mxPoint x="520" y="220" />
              <mxPoint x="715" y="220" />
              <mxPoint x="845" y="220" />
              <mxPoint x="845" y="188" />
            </Array>
          </mxGeometry>
        </mxCell>
        <mxCell id="TmPYNQ2tfaqNUfT9FM-9-9" value="Photo Viewing" style="rounded=1;whiteSpace=wrap;html=1;" vertex="1" parent="1">
          <mxGeometry x="785" y="330" width="150" height="40" as="geometry" />
        </mxCell>
        <mxCell id="TmPYNQ2tfaqNUfT9FM-9-10" value="Mission Tracking &amp;amp; Logs" style="rounded=1;whiteSpace=wrap;html=1;" vertex="1" parent="1">
          <mxGeometry x="1105" y="228" width="150" height="40" as="geometry" />
        </mxCell>
        <mxCell id="TmPYNQ2tfaqNUfT9FM-9-11" value="Drone Telemetry Display" style="rounded=1;whiteSpace=wrap;html=1;" vertex="1" parent="1">
          <mxGeometry x="1105" y="175" width="150" height="40" as="geometry" />
        </mxCell>
        <mxCell id="TmPYNQ2tfaqNUfT9FM-9-12" value="Interactive Map" style="rounded=1;whiteSpace=wrap;html=1;" vertex="1" parent="1">
          <mxGeometry x="785" y="270" width="150" height="40" as="geometry" />
        </mxCell>
        <mxCell id="TmPYNQ2tfaqNUfT9FM-9-13" value="Flight Path Visualization &amp;amp; Planning" style="rounded=1;whiteSpace=wrap;html=1;" vertex="1" parent="1">
          <mxGeometry x="1105" y="282" width="150" height="40" as="geometry" />
        </mxCell>
        <mxCell id="TmPYNQ2tfaqNUfT9FM-9-14" value="SkyController" style="rounded=1;whiteSpace=wrap;html=1;" vertex="1" parent="1">
          <mxGeometry x="580" y="570" width="120" height="40" as="geometry" />
        </mxCell>
        <mxCell id="TmPYNQ2tfaqNUfT9FM-9-15" value="" style="edgeStyle=orthogonalEdgeStyle;rounded=0;orthogonalLoop=1;jettySize=auto;html=1;" edge="1" parent="1" source="TmPYNQ2tfaqNUfT9FM-9-16" target="TmPYNQ2tfaqNUfT9FM-9-57">
          <mxGeometry relative="1" as="geometry" />
        </mxCell>
        <mxCell id="TmPYNQ2tfaqNUfT9FM-9-16" value="Socket.IO Server" style="rounded=1;whiteSpace=wrap;html=1;" vertex="1" parent="1">
          <mxGeometry x="460" y="260" width="120" height="37.5" as="geometry" />
        </mxCell>
        <mxCell id="TmPYNQ2tfaqNUfT9FM-9-17" value="&lt;div&gt;&lt;br&gt;&lt;/div&gt;&lt;div&gt;Missions Data&lt;/div&gt;" style="strokeWidth=2;html=1;shape=mxgraph.flowchart.database;whiteSpace=wrap;rounded=0;strokeColor=default;align=center;verticalAlign=middle;fontFamily=Helvetica;fontSize=12;fontColor=default;fillColor=default;" vertex="1" parent="1">
          <mxGeometry x="245" y="604.5" width="60" height="90" as="geometry" />
        </mxCell>
        <mxCell id="TmPYNQ2tfaqNUfT9FM-9-18" value="Disconnect SkyController" style="rounded=1;whiteSpace=wrap;html=1;strokeColor=default;align=center;verticalAlign=middle;fontFamily=Helvetica;fontSize=12;fontColor=default;fillColor=default;" vertex="1" parent="1">
          <mxGeometry x="315" y="460" width="120" height="40" as="geometry" />
        </mxCell>
        <mxCell id="TmPYNQ2tfaqNUfT9FM-9-19" value="&lt;div&gt;Olympe SDK&lt;/div&gt;" style="rounded=1;whiteSpace=wrap;html=1;strokeColor=default;align=center;verticalAlign=middle;fontFamily=Helvetica;fontSize=12;fontColor=default;fillColor=default;" vertex="1" parent="1">
          <mxGeometry x="460" y="530" width="120" height="40" as="geometry" />
        </mxCell>
        <mxCell id="TmPYNQ2tfaqNUfT9FM-9-20" value="Get Drone Telemetry" style="rounded=1;whiteSpace=wrap;html=1;strokeColor=default;align=center;verticalAlign=middle;fontFamily=Helvetica;fontSize=12;fontColor=default;fillColor=default;" vertex="1" parent="1">
          <mxGeometry x="605" y="460" width="120" height="40" as="geometry" />
        </mxCell>
        <mxCell id="TmPYNQ2tfaqNUfT9FM-9-21" value="" style="edgeStyle=orthogonalEdgeStyle;rounded=0;orthogonalLoop=1;jettySize=auto;html=1;fontFamily=Helvetica;fontSize=12;fontColor=default;" edge="1" parent="1" source="TmPYNQ2tfaqNUfT9FM-9-22" target="TmPYNQ2tfaqNUfT9FM-9-23">
          <mxGeometry relative="1" as="geometry" />
        </mxCell>
        <mxCell id="TmPYNQ2tfaqNUfT9FM-9-22" value="Calculate Grid" style="rounded=1;whiteSpace=wrap;html=1;strokeColor=default;align=center;verticalAlign=middle;fontFamily=Helvetica;fontSize=12;fontColor=default;fillColor=default;" vertex="1" parent="1">
          <mxGeometry x="460" y="390" width="120" height="40" as="geometry" />
        </mxCell>
        <mxCell id="TmPYNQ2tfaqNUfT9FM-9-23" value="Execute Flight" style="rounded=1;whiteSpace=wrap;html=1;strokeColor=default;align=center;verticalAlign=middle;fontFamily=Helvetica;fontSize=12;fontColor=default;fillColor=default;" vertex="1" parent="1">
          <mxGeometry x="460" y="460" width="120" height="40" as="geometry" />
        </mxCell>
        <mxCell id="TmPYNQ2tfaqNUfT9FM-9-24" value="" style="endArrow=classic;startArrow=classic;html=1;rounded=0;fontFamily=Helvetica;fontSize=12;fontColor=default;exitX=0.5;exitY=1;exitDx=0;exitDy=0;entryX=1;entryY=0.5;entryDx=0;entryDy=0;" edge="1" parent="1" source="TmPYNQ2tfaqNUfT9FM-9-20" target="TmPYNQ2tfaqNUfT9FM-9-19">
          <mxGeometry width="50" height="50" relative="1" as="geometry">
            <mxPoint x="825" y="490" as="sourcePoint" />
            <mxPoint x="875" y="440" as="targetPoint" />
            <Array as="points">
              <mxPoint x="665" y="520" />
              <mxPoint x="665" y="550" />
            </Array>
          </mxGeometry>
        </mxCell>
        <mxCell id="TmPYNQ2tfaqNUfT9FM-9-73" value="" style="edgeStyle=orthogonalEdgeStyle;rounded=0;orthogonalLoop=1;jettySize=auto;html=1;" edge="1" parent="1" source="TmPYNQ2tfaqNUfT9FM-9-26" target="TmPYNQ2tfaqNUfT9FM-9-28">
          <mxGeometry relative="1" as="geometry" />
        </mxCell>
        <mxCell id="TmPYNQ2tfaqNUfT9FM-9-26" value="Fly to waypoint" style="rounded=1;whiteSpace=wrap;html=1;strokeColor=default;align=center;verticalAlign=middle;fontFamily=Helvetica;fontSize=12;fontColor=default;fillColor=default;" vertex="1" parent="1">
          <mxGeometry x="1070" y="670" width="120" height="40" as="geometry" />
        </mxCell>
        <mxCell id="TmPYNQ2tfaqNUfT9FM-9-74" value="" style="edgeStyle=orthogonalEdgeStyle;rounded=0;orthogonalLoop=1;jettySize=auto;html=1;" edge="1" parent="1" source="TmPYNQ2tfaqNUfT9FM-9-28" target="TmPYNQ2tfaqNUfT9FM-9-30">
          <mxGeometry relative="1" as="geometry" />
        </mxCell>
        <mxCell id="TmPYNQ2tfaqNUfT9FM-9-28" value="Adjust rotation" style="rounded=1;whiteSpace=wrap;html=1;strokeColor=default;align=center;verticalAlign=middle;fontFamily=Helvetica;fontSize=12;fontColor=default;fillColor=default;" vertex="1" parent="1">
          <mxGeometry x="1070" y="570" width="120" height="40" as="geometry" />
        </mxCell>
        <mxCell id="TmPYNQ2tfaqNUfT9FM-9-30" value="Take photo" style="rounded=1;whiteSpace=wrap;html=1;strokeColor=default;align=center;verticalAlign=middle;fontFamily=Helvetica;fontSize=12;fontColor=default;fillColor=default;" vertex="1" parent="1">
          <mxGeometry x="1070" y="470" width="120" height="40" as="geometry" />
        </mxCell>
        <mxCell id="TmPYNQ2tfaqNUfT9FM-9-71" value="" style="edgeStyle=orthogonalEdgeStyle;rounded=0;orthogonalLoop=1;jettySize=auto;html=1;" edge="1" parent="1" source="TmPYNQ2tfaqNUfT9FM-9-31" target="TmPYNQ2tfaqNUfT9FM-9-48">
          <mxGeometry relative="1" as="geometry" />
        </mxCell>
        <mxCell id="TmPYNQ2tfaqNUfT9FM-9-31" value="Event emitter" style="rounded=1;whiteSpace=wrap;html=1;strokeColor=default;align=center;verticalAlign=middle;fontFamily=Helvetica;fontSize=12;fontColor=default;fillColor=default;" vertex="1" parent="1">
          <mxGeometry x="838.75" y="570" width="120" height="40" as="geometry" />
        </mxCell>
        <mxCell id="TmPYNQ2tfaqNUfT9FM-9-32" value="" style="edgeStyle=orthogonalEdgeStyle;rounded=0;orthogonalLoop=1;jettySize=auto;html=1;fontFamily=Helvetica;fontSize=12;fontColor=default;" edge="1" parent="1" source="TmPYNQ2tfaqNUfT9FM-9-34" target="TmPYNQ2tfaqNUfT9FM-9-36">
          <mxGeometry relative="1" as="geometry" />
        </mxCell>
        <mxCell id="TmPYNQ2tfaqNUfT9FM-9-33" value="" style="edgeStyle=orthogonalEdgeStyle;rounded=0;orthogonalLoop=1;jettySize=auto;html=1;entryX=1;entryY=0.5;entryDx=0;entryDy=0;entryPerimeter=0;" edge="1" parent="1" source="TmPYNQ2tfaqNUfT9FM-9-34" target="TmPYNQ2tfaqNUfT9FM-9-17">
          <mxGeometry relative="1" as="geometry">
            <Array as="points">
              <mxPoint x="390" y="650" />
              <mxPoint x="390" y="650" />
            </Array>
          </mxGeometry>
        </mxCell>
        <mxCell id="TmPYNQ2tfaqNUfT9FM-9-34" value="Request photo" style="rounded=1;whiteSpace=wrap;html=1;strokeColor=default;align=center;verticalAlign=middle;fontFamily=Helvetica;fontSize=12;fontColor=default;fillColor=default;" vertex="1" parent="1">
          <mxGeometry x="430" y="627" width="120" height="45" as="geometry" />
        </mxCell>
        <mxCell id="TmPYNQ2tfaqNUfT9FM-9-35" value="" style="endArrow=classic;html=1;rounded=0;fontFamily=Helvetica;fontSize=12;fontColor=default;exitX=0.25;exitY=1;exitDx=0;exitDy=0;entryX=0.5;entryY=0;entryDx=0;entryDy=0;" edge="1" parent="1" source="TmPYNQ2tfaqNUfT9FM-9-19" target="TmPYNQ2tfaqNUfT9FM-9-34">
          <mxGeometry width="50" height="50" relative="1" as="geometry">
            <mxPoint x="825" y="680" as="sourcePoint" />
            <mxPoint x="875" y="630" as="targetPoint" />
            <Array as="points">
              <mxPoint x="490" y="600" />
            </Array>
          </mxGeometry>
        </mxCell>
        <mxCell id="TmPYNQ2tfaqNUfT9FM-9-36" value="YOLO computer vision model" style="rounded=1;whiteSpace=wrap;html=1;strokeColor=default;align=center;verticalAlign=middle;fontFamily=Helvetica;fontSize=12;fontColor=default;fillColor=default;" vertex="1" parent="1">
          <mxGeometry x="580" y="627" width="120" height="45" as="geometry" />
        </mxCell>
        <mxCell id="TmPYNQ2tfaqNUfT9FM-9-38" value="&lt;div style=&quot;line-height: 60%;&quot;&gt;&lt;font style=&quot;font-size: 8px; line-height: 60%;&quot;&gt;Save raw picture&lt;/font&gt;&lt;/div&gt;" style="text;html=1;align=center;verticalAlign=middle;whiteSpace=wrap;rounded=0;fontFamily=Helvetica;fontSize=12;fontColor=default;" vertex="1" parent="1">
          <mxGeometry x="330" y="620" width="80" height="30" as="geometry" />
        </mxCell>
        <mxCell id="TmPYNQ2tfaqNUfT9FM-9-39" value="&lt;div style=&quot;line-height: 60%;&quot;&gt;&lt;div&gt;&lt;font style=&quot;font-size: 8px; line-height: 60%;&quot;&gt;Save processed picture&lt;/font&gt;&lt;/div&gt;&lt;/div&gt;" style="text;html=1;align=center;verticalAlign=middle;whiteSpace=wrap;rounded=0;fontFamily=Helvetica;fontSize=12;fontColor=default;" vertex="1" parent="1">
          <mxGeometry x="415" y="700" width="105" height="30" as="geometry" />
        </mxCell>
        <mxCell id="TmPYNQ2tfaqNUfT9FM-9-40" value="Get missions data" style="rounded=1;whiteSpace=wrap;html=1;strokeColor=default;align=center;verticalAlign=middle;fontFamily=Helvetica;fontSize=12;fontColor=default;fillColor=default;" vertex="1" parent="1">
          <mxGeometry x="305" y="259" width="120" height="40" as="geometry" />
        </mxCell>
        <mxCell id="TmPYNQ2tfaqNUfT9FM-9-41" value="" style="endArrow=classic;startArrow=classic;html=1;rounded=0;fontFamily=Helvetica;fontSize=12;fontColor=default;entryX=0;entryY=0.5;entryDx=0;entryDy=0;exitX=0.5;exitY=0;exitDx=0;exitDy=0;exitPerimeter=0;" edge="1" parent="1" source="TmPYNQ2tfaqNUfT9FM-9-17" target="TmPYNQ2tfaqNUfT9FM-9-40">
          <mxGeometry width="50" height="50" relative="1" as="geometry">
            <mxPoint x="785" y="490" as="sourcePoint" />
            <mxPoint x="835" y="440" as="targetPoint" />
            <Array as="points">
              <mxPoint x="275" y="279" />
            </Array>
          </mxGeometry>
        </mxCell>
        <mxCell id="TmPYNQ2tfaqNUfT9FM-9-42" value="" style="endArrow=classic;startArrow=classic;html=1;rounded=0;fontFamily=Helvetica;fontSize=12;fontColor=default;exitX=1;exitY=0.5;exitDx=0;exitDy=0;entryX=0;entryY=0.5;entryDx=0;entryDy=0;" edge="1" parent="1" source="TmPYNQ2tfaqNUfT9FM-9-40" target="TmPYNQ2tfaqNUfT9FM-9-16">
          <mxGeometry width="50" height="50" relative="1" as="geometry">
            <mxPoint x="785" y="490" as="sourcePoint" />
            <mxPoint x="835" y="440" as="targetPoint" />
            <Array as="points" />
          </mxGeometry>
        </mxCell>
        <mxCell id="TmPYNQ2tfaqNUfT9FM-9-43" value="" style="endArrow=classic;startArrow=classic;html=1;rounded=0;fontFamily=Helvetica;fontSize=12;fontColor=default;exitX=0.5;exitY=0;exitDx=0;exitDy=0;entryX=0;entryY=0.75;entryDx=0;entryDy=0;" edge="1" parent="1" source="TmPYNQ2tfaqNUfT9FM-9-12" target="TmPYNQ2tfaqNUfT9FM-9-7">
          <mxGeometry width="50" height="50" relative="1" as="geometry">
            <mxPoint x="785" y="490" as="sourcePoint" />
            <mxPoint x="835" y="440" as="targetPoint" />
            <Array as="points">
              <mxPoint x="860" y="250" />
              <mxPoint x="860" y="203" />
            </Array>
          </mxGeometry>
        </mxCell>
        <mxCell id="TmPYNQ2tfaqNUfT9FM-9-44" value="" style="endArrow=classic;startArrow=classic;html=1;rounded=0;fontFamily=Helvetica;fontSize=12;fontColor=default;exitX=1;exitY=0.75;exitDx=0;exitDy=0;entryX=0;entryY=0.5;entryDx=0;entryDy=0;" edge="1" parent="1" source="TmPYNQ2tfaqNUfT9FM-9-7" target="TmPYNQ2tfaqNUfT9FM-9-10">
          <mxGeometry width="50" height="50" relative="1" as="geometry">
            <mxPoint x="1050" y="205" as="sourcePoint" />
            <mxPoint x="1095" y="205" as="targetPoint" />
            <Array as="points">
              <mxPoint x="1065" y="203" />
              <mxPoint x="1065" y="248" />
            </Array>
          </mxGeometry>
        </mxCell>
        <mxCell id="TmPYNQ2tfaqNUfT9FM-9-45" value="" style="endArrow=classic;startArrow=classic;html=1;rounded=0;fontFamily=Helvetica;fontSize=12;fontColor=default;exitX=0.75;exitY=1;exitDx=0;exitDy=0;entryX=0;entryY=0.5;entryDx=0;entryDy=0;" edge="1" parent="1" source="TmPYNQ2tfaqNUfT9FM-9-7" target="TmPYNQ2tfaqNUfT9FM-9-13">
          <mxGeometry width="50" height="50" relative="1" as="geometry">
            <mxPoint x="1020" y="220" as="sourcePoint" />
            <mxPoint x="1095" y="257" as="targetPoint" />
            <Array as="points">
              <mxPoint x="1010" y="302" />
            </Array>
          </mxGeometry>
        </mxCell>
        <mxCell id="TmPYNQ2tfaqNUfT9FM-9-46" value="" style="endArrow=classic;startArrow=classic;html=1;rounded=0;fontFamily=Helvetica;fontSize=12;fontColor=default;exitX=1;exitY=0.5;exitDx=0;exitDy=0;entryX=0.25;entryY=1;entryDx=0;entryDy=0;" edge="1" parent="1" source="TmPYNQ2tfaqNUfT9FM-9-9" target="TmPYNQ2tfaqNUfT9FM-9-7">
          <mxGeometry width="50" height="50" relative="1" as="geometry">
            <mxPoint x="785" y="490" as="sourcePoint" />
            <mxPoint x="835" y="440" as="targetPoint" />
            <Array as="points">
              <mxPoint x="950" y="350" />
            </Array>
          </mxGeometry>
        </mxCell>
        <mxCell id="TmPYNQ2tfaqNUfT9FM-9-76" value="" style="edgeStyle=orthogonalEdgeStyle;rounded=0;orthogonalLoop=1;jettySize=auto;html=1;" edge="1" parent="1" source="TmPYNQ2tfaqNUfT9FM-9-47" target="TmPYNQ2tfaqNUfT9FM-9-31">
          <mxGeometry relative="1" as="geometry" />
        </mxCell>
        <mxCell id="TmPYNQ2tfaqNUfT9FM-9-47" value="Telemetry data" style="rounded=1;whiteSpace=wrap;html=1;strokeColor=default;align=center;verticalAlign=middle;fontFamily=Helvetica;fontSize=12;fontColor=default;fillColor=default;" vertex="1" parent="1">
          <mxGeometry x="838.75" y="470" width="120" height="40" as="geometry" />
        </mxCell>
        <mxCell id="TmPYNQ2tfaqNUfT9FM-9-48" value="Receiver / Transmitter" style="rounded=1;whiteSpace=wrap;html=1;strokeColor=default;align=center;verticalAlign=middle;fontFamily=Helvetica;fontSize=12;fontColor=default;fillColor=default;" vertex="1" parent="1">
          <mxGeometry x="830" y="670" width="137.5" height="40" as="geometry" />
        </mxCell>
        <mxCell id="TmPYNQ2tfaqNUfT9FM-9-51" value="" style="endArrow=classic;startArrow=classic;html=1;rounded=0;exitX=0.75;exitY=1;exitDx=0;exitDy=0;entryX=0;entryY=0.5;entryDx=0;entryDy=0;" edge="1" parent="1" source="TmPYNQ2tfaqNUfT9FM-9-19" target="TmPYNQ2tfaqNUfT9FM-9-14">
          <mxGeometry width="50" height="50" relative="1" as="geometry">
            <mxPoint x="705" y="410" as="sourcePoint" />
            <mxPoint x="755" y="360" as="targetPoint" />
            <Array as="points">
              <mxPoint x="550" y="590" />
            </Array>
          </mxGeometry>
        </mxCell>
        <mxCell id="TmPYNQ2tfaqNUfT9FM-9-52" value="Connect / Disconnect SkyController" style="rounded=1;whiteSpace=wrap;html=1;" vertex="1" parent="1">
          <mxGeometry x="1105" y="336" width="150" height="40" as="geometry" />
        </mxCell>
        <mxCell id="TmPYNQ2tfaqNUfT9FM-9-53" value="" style="endArrow=classic;html=1;rounded=0;exitX=0;exitY=0.5;exitDx=0;exitDy=0;entryX=0.5;entryY=1;entryDx=0;entryDy=0;" edge="1" parent="1" source="TmPYNQ2tfaqNUfT9FM-9-52" target="TmPYNQ2tfaqNUfT9FM-9-7">
          <mxGeometry width="50" height="50" relative="1" as="geometry">
            <mxPoint x="775" y="410" as="sourcePoint" />
            <mxPoint x="825" y="360" as="targetPoint" />
            <Array as="points">
              <mxPoint x="980" y="356" />
            </Array>
          </mxGeometry>
        </mxCell>
        <mxCell id="TmPYNQ2tfaqNUfT9FM-9-54" value="" style="endArrow=classic;startArrow=classic;html=1;rounded=0;exitX=0;exitY=0.5;exitDx=0;exitDy=0;entryX=1;entryY=0.25;entryDx=0;entryDy=0;" edge="1" parent="1" source="TmPYNQ2tfaqNUfT9FM-9-11" target="TmPYNQ2tfaqNUfT9FM-9-7">
          <mxGeometry width="50" height="50" relative="1" as="geometry">
            <mxPoint x="835" y="520" as="sourcePoint" />
            <mxPoint x="885" y="470" as="targetPoint" />
            <Array as="points">
              <mxPoint x="1075" y="195" />
              <mxPoint x="1075" y="188" />
            </Array>
          </mxGeometry>
        </mxCell>
        <mxCell id="TmPYNQ2tfaqNUfT9FM-9-55" value="" style="endArrow=classic;html=1;rounded=0;exitX=0.5;exitY=1;exitDx=0;exitDy=0;entryX=0;entryY=0.5;entryDx=0;entryDy=0;" edge="1" parent="1" source="TmPYNQ2tfaqNUfT9FM-9-18" target="TmPYNQ2tfaqNUfT9FM-9-19">
          <mxGeometry width="50" height="50" relative="1" as="geometry">
            <mxPoint x="555" y="490" as="sourcePoint" />
            <mxPoint x="605" y="440" as="targetPoint" />
            <Array as="points">
              <mxPoint x="375" y="550" />
            </Array>
          </mxGeometry>
        </mxCell>
        <mxCell id="TmPYNQ2tfaqNUfT9FM-9-56" value="" style="endArrow=classic;html=1;rounded=0;exitX=0.5;exitY=1;exitDx=0;exitDy=0;entryX=0.5;entryY=0;entryDx=0;entryDy=0;" edge="1" parent="1" source="TmPYNQ2tfaqNUfT9FM-9-23" target="TmPYNQ2tfaqNUfT9FM-9-19">
          <mxGeometry width="50" height="50" relative="1" as="geometry">
            <mxPoint x="585" y="490" as="sourcePoint" />
            <mxPoint x="635" y="440" as="targetPoint" />
            <Array as="points">
              <mxPoint x="520" y="500" />
            </Array>
          </mxGeometry>
        </mxCell>
        <mxCell id="TmPYNQ2tfaqNUfT9FM-9-57" value="Connect SkyController" style="rounded=1;whiteSpace=wrap;html=1;strokeColor=default;align=center;verticalAlign=middle;fontFamily=Helvetica;fontSize=12;fontColor=default;fillColor=default;" vertex="1" parent="1">
          <mxGeometry x="460" y="322" width="120" height="40" as="geometry" />
        </mxCell>
        <mxCell id="TmPYNQ2tfaqNUfT9FM-9-58" value="" style="endArrow=classic;html=1;rounded=0;exitX=0.5;exitY=1;exitDx=0;exitDy=0;entryX=0.5;entryY=0;entryDx=0;entryDy=0;" edge="1" parent="1" source="TmPYNQ2tfaqNUfT9FM-9-57" target="TmPYNQ2tfaqNUfT9FM-9-22">
          <mxGeometry width="50" height="50" relative="1" as="geometry">
            <mxPoint x="525" y="490" as="sourcePoint" />
            <mxPoint x="575" y="440" as="targetPoint" />
            <Array as="points" />
          </mxGeometry>
        </mxCell>
        <mxCell id="TmPYNQ2tfaqNUfT9FM-9-59" value="" style="endArrow=classic;html=1;rounded=0;exitX=0;exitY=0.5;exitDx=0;exitDy=0;entryX=0.5;entryY=0;entryDx=0;entryDy=0;" edge="1" parent="1" source="TmPYNQ2tfaqNUfT9FM-9-57" target="TmPYNQ2tfaqNUfT9FM-9-18">
          <mxGeometry width="50" height="50" relative="1" as="geometry">
            <mxPoint x="525" y="490" as="sourcePoint" />
            <mxPoint x="575" y="440" as="targetPoint" />
            <Array as="points">
              <mxPoint x="375" y="342" />
            </Array>
          </mxGeometry>
        </mxCell>
        <mxCell id="TmPYNQ2tfaqNUfT9FM-9-60" value="" style="endArrow=classic;startArrow=classic;html=1;rounded=0;exitX=1;exitY=0.5;exitDx=0;exitDy=0;entryX=0.503;entryY=-0.055;entryDx=0;entryDy=0;entryPerimeter=0;" edge="1" parent="1" source="TmPYNQ2tfaqNUfT9FM-9-57" target="TmPYNQ2tfaqNUfT9FM-9-20">
          <mxGeometry width="50" height="50" relative="1" as="geometry">
            <mxPoint x="605" y="450" as="sourcePoint" />
            <mxPoint x="655" y="400" as="targetPoint" />
            <Array as="points">
              <mxPoint x="665" y="342" />
              <mxPoint x="665" y="410" />
            </Array>
          </mxGeometry>
        </mxCell>
        <mxCell id="TmPYNQ2tfaqNUfT9FM-9-63" value="" style="endArrow=classic;html=1;rounded=0;exitX=0.5;exitY=1;exitDx=0;exitDy=0;entryX=0.5;entryY=1;entryDx=0;entryDy=0;entryPerimeter=0;" edge="1" parent="1" source="TmPYNQ2tfaqNUfT9FM-9-36" target="TmPYNQ2tfaqNUfT9FM-9-17">
          <mxGeometry width="50" height="50" relative="1" as="geometry">
            <mxPoint x="720" y="520" as="sourcePoint" />
            <mxPoint x="770" y="470" as="targetPoint" />
            <Array as="points">
              <mxPoint x="640" y="730" />
              <mxPoint x="275" y="730" />
            </Array>
          </mxGeometry>
        </mxCell>
        <mxCell id="TmPYNQ2tfaqNUfT9FM-9-64" value="" style="endArrow=classic;html=1;rounded=0;exitX=0;exitY=0.5;exitDx=0;exitDy=0;entryX=1;entryY=0.5;entryDx=0;entryDy=0;" edge="1" parent="1" source="TmPYNQ2tfaqNUfT9FM-9-48" target="TmPYNQ2tfaqNUfT9FM-9-14">
          <mxGeometry width="50" height="50" relative="1" as="geometry">
            <mxPoint x="940" y="660" as="sourcePoint" />
            <mxPoint x="990" y="610" as="targetPoint" />
            <Array as="points">
              <mxPoint x="740" y="690" />
              <mxPoint x="730" y="690" />
              <mxPoint x="730" y="590" />
            </Array>
          </mxGeometry>
        </mxCell>
        <mxCell id="TmPYNQ2tfaqNUfT9FM-9-72" value="" style="endArrow=classic;html=1;rounded=0;exitX=1;exitY=0.5;exitDx=0;exitDy=0;entryX=0;entryY=0.5;entryDx=0;entryDy=0;" edge="1" parent="1" source="TmPYNQ2tfaqNUfT9FM-9-48" target="TmPYNQ2tfaqNUfT9FM-9-26">
          <mxGeometry width="50" height="50" relative="1" as="geometry">
            <mxPoint x="920" y="570" as="sourcePoint" />
            <mxPoint x="970" y="520" as="targetPoint" />
          </mxGeometry>
        </mxCell>
        <mxCell id="TmPYNQ2tfaqNUfT9FM-9-75" value="" style="endArrow=classic;html=1;rounded=0;exitX=0;exitY=0.5;exitDx=0;exitDy=0;entryX=1;entryY=0.5;entryDx=0;entryDy=0;" edge="1" parent="1" source="TmPYNQ2tfaqNUfT9FM-9-30" target="TmPYNQ2tfaqNUfT9FM-9-31">
          <mxGeometry width="50" height="50" relative="1" as="geometry">
            <mxPoint x="920" y="570" as="sourcePoint" />
            <mxPoint x="970" y="520" as="targetPoint" />
            <Array as="points">
              <mxPoint x="1010" y="490" />
              <mxPoint x="1010" y="590" />
            </Array>
          </mxGeometry>
        </mxCell>
      </root>
    </mxGraphModel>
  </diagram>
</mxfile>
